<svg width="248" height="248" viewBox="0 0 248 248" fill="none" xmlns="http://www.w3.org/2000/svg">
<g filter="url(#filter0_ii)">
<g clip-path="url(#clip0)">
<path d="M124 248C178.336 248 208.542 248 228.271 228.271C248 208.542 248 178.336 248 124C248 69.6639 248 39.4577 228.271 19.7288C208.542 -3.28488e-06 178.336 0 124 0C69.6639 0 39.4577 -3.28488e-06 19.7288 19.7288C-3.28488e-06 39.4577 0 69.6639 0 124C0 178.336 -3.28488e-06 208.542 19.7288 228.271C39.4577 248 69.6639 248 124 248Z" fill="#2B3768"/>
<g style="mix-blend-mode:overlay">
<path d="M124 248C178.336 248 208.542 248 228.271 228.271C248 208.542 248 178.336 248 124C248 69.6639 248 39.4577 228.271 19.7288C208.542 -3.8147e-06 178.336 0 124 0C69.6639 0 39.4577 -3.8147e-06 19.7288 19.7288C-3.8147e-06 39.4577 0 69.6639 0 124C0 178.336 -3.8147e-06 208.542 19.7288 228.271C39.4577 248 69.6639 248 124 248Z" fill="url(#paint0_linear)"/>
</g>
<g style="mix-blend-mode:soft-light" filter="url(#filter1_f)">
<path d="M227.211 227.211C217.655 236.766 205.521 241.611 188.896 244.05C172.219 246.496 151.211 246.5 124 246.5C96.7892 246.5 75.7809 246.496 59.1044 244.05C42.4786 241.611 30.345 236.766 20.7895 227.211C11.234 217.655 6.38935 205.521 3.95022 188.896C1.50366 172.219 1.5 151.211 1.5 124C1.5 96.7892 1.50366 75.7809 3.95022 59.1044C6.38935 42.4786 11.234 30.345 20.7895 20.7895C30.345 11.234 42.4786 6.38935 59.1044 3.95022C75.7809 1.50366 96.7892 1.5 124 1.5C151.211 1.5 172.219 1.50366 188.896 3.95022C205.521 6.38935 217.655 11.234 227.211 20.7895C236.766 30.345 241.611 42.4786 244.05 59.1044C246.496 75.7809 246.5 96.7892 246.5 124C246.5 151.211 246.496 172.219 244.05 188.896C241.611 205.521 236.766 217.655 227.211 227.211Z" stroke="url(#paint1_linear)" stroke-width="3"/>
</g>
<g style="mix-blend-mode:soft-light" filter="url(#filter2_f)">
<path d="M226.857 226.857C217.404 236.31 205.388 241.125 188.823 243.555C172.191 245.995 151.225 246 124 246C96.775 246 75.809 245.995 59.177 243.555C42.6124 241.125 30.5956 236.31 21.143 226.857C11.6905 217.404 6.87506 205.388 4.44492 188.823C2.00488 172.191 2 151.225 2 124C2 96.775 2.00488 75.809 4.44492 59.177C6.87506 42.6124 11.6905 30.5956 21.143 21.143C30.5956 11.6905 42.6124 6.87506 59.177 4.44492C75.809 2.00488 96.775 2 124 2C151.225 2 172.191 2.00488 188.823 4.44492C205.388 6.87506 217.404 11.6905 226.857 21.143C236.31 30.5956 241.125 42.6124 243.555 59.177C245.995 75.809 246 96.775 246 124C246 151.225 245.995 172.191 243.555 188.823C241.125 205.388 236.31 217.404 226.857 226.857Z" stroke="url(#paint2_linear)" stroke-width="4"/>
</g>
<g clip-path="url(#clip1)">
<path d="M123.293 149.616C123.915 148.644 124.417 147.827 124.763 147.25C124.773 146.863 124.73 146.067 124.223 145.297C124.054 145.039 123.866 144.835 123.692 144.683C115.679 135.355 107.572 125.533 99.4276 115.206C88.6476 101.538 78.7042 88.1236 69.5375 75.0858C69.2282 74.5613 68.6118 74.3234 68.078 74.4906C67.4594 74.6843 67.0763 75.3805 67.2623 76.0664C64.3699 91.078 61.4768 106.086 58.5843 121.097C58.1937 122.972 57.7918 126.091 58.4604 129.846C59.1624 133.77 60.7309 136.653 61.7894 138.285C65.9643 144.611 70.4095 151.085 75.1299 157.665C79.6454 163.963 84.148 169.987 88.6026 175.736C88.6847 175.784 89.5088 176.277 89.6082 177.288C89.7115 178.323 88.9714 178.977 88.9033 179.031C88.1542 181.054 87.4012 183.077 86.6528 185.103C86.5421 185.736 86.0282 188.925 87.2266 189.515C87.8815 189.84 88.7887 189.254 89.2128 188.97C95.403 184.838 99.8223 179.331 99.8223 179.331C102.15 176.43 104.631 173.65 107.003 170.785C111.39 165.493 113.607 162.821 114.733 161.401C118.881 156.166 121.199 152.895 123.293 149.616Z" fill="#94D0CC"/>
<path d="M121.902 137.784C122.056 138.041 123.04 139.717 122.731 139.97C122.459 140.192 121.31 139.193 121.011 138.931C112.987 128.784 104.921 118.331 96.8315 107.563C90.6342 99.3108 84.6078 91.1258 78.7531 83.0118C78.4658 82.7902 77.9362 82.3159 77.6003 81.528C77.0912 80.3276 77.3931 79.234 77.4893 78.9181C77.8023 76.4671 78.1191 74.0155 78.4321 71.5645C78.3801 71.0454 78.7398 70.5708 79.241 70.4831C79.761 70.3922 80.2733 70.7453 80.37 71.2759C86.2482 80.2791 92.1291 89.4527 98.0088 98.7974C106.277 111.938 114.237 124.938 121.902 137.784Z" fill="#94D0CC"/>
<path d="M134.214 144.753C133.936 144.697 132.808 144.51 131.712 145.191C131.004 145.633 130.643 146.232 130.493 146.527C121.878 157.246 113.267 167.961 104.652 178.68C104.236 178.939 103.922 179.32 103.965 179.658C104.025 180.133 104.802 180.623 105.85 180.42C111.076 180.702 116.455 180.899 121.984 181.003C129.936 181.15 137.595 181.084 144.945 180.854C146.265 180.826 147.948 180.659 149.825 180.133C152.75 179.314 154.917 177.98 156.279 176.973C168.898 167.3 181.517 157.628 194.136 147.956C195.23 147.326 195.654 146.397 195.402 145.913C195.215 145.554 194.681 145.476 194.531 145.46C179.558 145.054 164.362 144.815 148.957 144.757C144.017 144.735 139.104 144.733 134.214 144.753Z" fill="#94D0CC"/>
<path d="M125.461 136.304C126.574 133.604 127.818 129.615 127.989 124.688C128.315 115.411 124.639 108.469 122.814 105.499" stroke="white" stroke-width="1.91279" stroke-miterlimit="10" stroke-linecap="round"/>
<path d="M134.898 134.882C137.192 133.54 151.161 125.057 153.695 108.753C154.715 102.194 153.534 96.641 152.412 93.1129" stroke="white" stroke-width="1.91279" stroke-miterlimit="10" stroke-linecap="round"/>
</g>
</g>
</g>
<defs>
<filter id="filter0_ii" x="0" y="-2" width="248" height="252" filterUnits="userSpaceOnUse" color-interpolation-filters="sRGB">
<feFlood flood-opacity="0" result="BackgroundImageFix"/>
<feBlend mode="normal" in="SourceGraphic" in2="BackgroundImageFix" result="shape"/>
<feColorMatrix in="SourceAlpha" type="matrix" values="0 0 0 0 0 0 0 0 0 0 0 0 0 0 0 0 0 0 127 0" result="hardAlpha"/>
<feOffset dy="2"/>
<feGaussianBlur stdDeviation="2"/>
<feComposite in2="hardAlpha" operator="arithmetic" k2="-1" k3="1"/>
<feColorMatrix type="matrix" values="0 0 0 0 1 0 0 0 0 1 0 0 0 0 1 0 0 0 0.25 0"/>
<feBlend mode="normal" in2="shape" result="effect1_innerShadow"/>
<feColorMatrix in="SourceAlpha" type="matrix" values="0 0 0 0 0 0 0 0 0 0 0 0 0 0 0 0 0 0 127 0" result="hardAlpha"/>
<feOffset dy="-2"/>
<feGaussianBlur stdDeviation="2"/>
<feComposite in2="hardAlpha" operator="arithmetic" k2="-1" k3="1"/>
<feColorMatrix type="matrix" values="0 0 0 0 0 0 0 0 0 0 0 0 0 0 0 0 0 0 0.12 0"/>
<feBlend mode="normal" in2="effect1_innerShadow" result="effect2_innerShadow"/>
</filter>
<filter id="filter1_f" x="-2" y="-2" width="252" height="252" filterUnits="userSpaceOnUse" color-interpolation-filters="sRGB">
<feFlood flood-opacity="0" result="BackgroundImageFix"/>
<feBlend mode="normal" in="SourceGraphic" in2="BackgroundImageFix" result="shape"/>
<feGaussianBlur stdDeviation="1" result="effect1_foregroundBlur"/>
</filter>
<filter id="filter2_f" x="-6" y="-6" width="260" height="260" filterUnits="userSpaceOnUse" color-interpolation-filters="sRGB">
<feFlood flood-opacity="0" result="BackgroundImageFix"/>
<feBlend mode="normal" in="SourceGraphic" in2="BackgroundImageFix" result="shape"/>
<feGaussianBlur stdDeviation="3" result="effect1_foregroundBlur"/>
</filter>
<linearGradient id="paint0_linear" x1="-2.90864" y1="4.96427e-07" x2="64.9836" y2="290.737" gradientUnits="userSpaceOnUse">
<stop stop-color="#130031"/>
<stop offset="0.605667" stop-color="#130031"/>
<stop offset="1" stop-color="#130031"/>
</linearGradient>
<linearGradient id="paint1_linear" x1="124" y1="248" x2="124" y2="209.25" gradientUnits="userSpaceOnUse">
<stop stop-color="#130031"/>
<stop offset="1" stop-color="#2B3768"/>
</linearGradient>
<linearGradient id="paint2_linear" x1="124" y1="0" x2="124" y2="124" gradientUnits="userSpaceOnUse">
<stop stop-color="white"/>
<stop offset="1" stop-color="white" stop-opacity="0"/>
</linearGradient>
<clipPath id="clip0">
<rect width="248" height="248" fill="white"/>
</clipPath>
<clipPath id="clip1">
<rect width="132.151" height="120.269" fill="white" transform="matrix(-0.985039 0.172332 0.172332 0.985039 179.174 53)"/>
</clipPath>
</defs>
</svg>
